<svg width="47" height="46" viewBox="0 0 47 46" fill="none" xmlns="http://www.w3.org/2000/svg">
<path d="M23.2178 46C31.4989 46 39.1504 41.6164 43.2909 34.5C47.4314 27.3836 47.4314 18.6164 43.2909 11.5C39.1504 4.38358 31.4989 0 23.2178 0C14.9368 0 7.28529 4.38358 3.14477 11.5C-0.995746 18.6164 -0.995746 27.3836 3.14477 34.5C7.28529 41.6164 14.9368 46 23.2178 46V43.7934C15.7314 43.7934 8.81371 39.8299 5.07005 33.3967C1.3264 26.9635 1.3264 19.0365 5.07005 12.6033C8.81371 6.17011 15.7314 2.20664 23.2178 2.20664C30.7043 2.20664 37.622 6.17011 41.3656 12.6033C45.1093 19.0365 45.1093 26.9635 41.3656 33.3967C37.622 39.8299 30.7043 43.7934 23.2178 43.7934V46Z" fill="#455A64" fill-opacity="0.01"/>
<path d="M23.2178 46C30.2715 46 36.942 42.8131 41.34 37.3406L39.6012 35.9649C35.6249 40.912 29.595 43.7934 23.2178 43.7934V46Z" fill="#CE001B"/>
<path d="M41.34 37.3406C45.7379 31.8682 47.3853 24.7059 45.8158 17.8823L43.6476 18.3728C45.0665 24.5421 43.5775 31.0178 39.6012 35.9649L41.34 37.3406Z" fill="#780011"/>
<path d="M45.8158 17.8823C44.2463 11.0587 39.6294 5.31461 33.2745 2.27793L32.3097 4.26561C38.0556 7.01118 42.2286 12.2036 43.6476 18.3728L45.8158 17.8823Z" fill="#6D7096"/>
<path d="M33.2745 2.27793C26.9196 -0.758744 19.5161 -0.758744 13.1612 2.27793L14.126 4.26561C19.8719 1.52004 26.5638 1.52004 32.3097 4.26561L33.2745 2.27793Z" fill="#60BBD5"/>
<path d="M13.1612 2.27793C6.80632 5.31461 2.18941 11.0587 0.619926 17.8823L2.78812 18.3728C4.20706 12.2036 8.38008 7.01118 14.126 4.26561L13.1612 2.27793Z" fill="#0F99BE"/>
<path d="M0.619926 17.8823C-0.949553 24.7059 0.697758 31.8682 5.09572 37.3406L6.83455 35.9649C2.85825 31.0178 1.36917 24.5421 2.78812 18.3728L0.619926 17.8823Z" fill="#8C9D26"/>
<path d="M5.09572 37.3406C9.49368 42.8131 16.1642 46 23.2179 46V43.7934C16.8407 43.7934 10.8108 40.912 6.83455 35.9649L5.09572 37.3406Z" fill="#FCD813"/>
<path fill-rule="evenodd" clip-rule="evenodd" d="M12.9466 26.6993V28.7213H16.6653L15.5981 35.3386H18.0156L19.1293 28.7213H25.3874L24.2737 35.3386H26.6931L27.8068 28.7213H32.1578V26.6993H28.1179L29.4296 19.2088H33.5035V17.1408H29.7857L30.853 10.6613H28.3874L27.3202 17.1408H21.0637L22.1774 10.6613H19.71L18.6427 17.1408H14.2923V19.2088H18.2858L16.9741 26.6993H12.9466ZM20.6615 19.2088H26.9664L25.7422 26.6993H19.4373L20.6615 19.2088Z" fill="white"/>
</svg>
