<svg width="16" height="16" viewBox="0 0 16 16" fill="none" xmlns="http://www.w3.org/2000/svg">
<g opacity="0.3">
<path fill-rule="evenodd" clip-rule="evenodd" d="M0 6.32504C0 2.84505 2.84504 0 6.32504 0C9.80503 0 12.6501 2.84504 12.6501 6.32504C12.6501 7.66533 12.2284 8.90954 11.5106 9.93521L15.6731 14.0918C16.109 14.5277 16.109 15.2372 15.6731 15.6731C15.2372 16.109 14.5277 16.109 14.0918 15.6731L9.93519 11.5107C8.90953 12.2284 7.66534 12.6501 6.32504 12.6501C2.84504 12.6501 0 9.80504 0 6.32504ZM10.4177 6.32504C10.4177 4.05152 8.59854 2.23237 6.32504 2.23237C4.05153 2.23237 2.23237 4.05152 2.23237 6.32504C2.23237 8.59854 4.05153 10.4177 6.32504 10.4177C8.59854 10.4177 10.4177 8.59854 10.4177 6.32504Z" fill="black"/>
</g>
</svg>
