<svg width="11" height="7" viewBox="0 0 11 7" fill="none" xmlns="http://www.w3.org/2000/svg">
<path d="M10.4269 1.69191C10.4269 1.91363 10.3488 2.10195 10.1928 2.25687L6.07558 6.34378C5.91526 6.50293 5.72342 6.5825 5.50005 6.5825C5.27244 6.5825 5.08273 6.50293 4.93091 6.34378L0.813721 2.25687C0.653402 2.10617 0.573242 1.91785 0.573242 1.69191C0.573242 1.47019 0.653402 1.27976 0.813721 1.12062L1.28158 0.649879C1.44591 0.494957 1.63775 0.417496 1.8571 0.417496C2.08046 0.417496 2.27017 0.494957 2.42624 0.649879L5.50005 3.70109L8.57387 0.649879C8.72994 0.494957 8.91965 0.417496 9.14301 0.417496C9.36236 0.417496 9.5542 0.494957 9.71853 0.649879L10.1928 1.12062C10.3488 1.28375 10.4269 1.47418 10.4269 1.69191Z" fill="black"/>
<mask id="mask0" mask-type="alpha" maskUnits="userSpaceOnUse" x="0" y="0" width="11" height="7">
<path d="M10.4269 1.69191C10.4269 1.91363 10.3488 2.10195 10.1928 2.25687L6.07558 6.34378C5.91526 6.50293 5.72342 6.5825 5.50005 6.5825C5.27244 6.5825 5.08273 6.50293 4.93091 6.34378L0.813721 2.25687C0.653402 2.10617 0.573242 1.91785 0.573242 1.69191C0.573242 1.47019 0.653402 1.27976 0.813721 1.12062L1.28158 0.649879C1.44591 0.494957 1.63775 0.417496 1.8571 0.417496C2.08046 0.417496 2.27017 0.494957 2.42624 0.649879L5.50005 3.70109L8.57387 0.649879C8.72994 0.494957 8.91965 0.417496 9.14301 0.417496C9.36236 0.417496 9.5542 0.494957 9.71853 0.649879L10.1928 1.12062C10.3488 1.28375 10.4269 1.47418 10.4269 1.69191Z" fill="white"/>
</mask>
<g mask="url(#mask0)">
<rect x="-2" y="-4" width="15" height="15" fill="#717171"/>
</g>
</svg>
